<svg xmlns="http://www.w3.org/2000/svg" xmlns:xlink="http://www.w3.org/1999/xlink" width="1024" zoomAndPan="magnify" viewBox="0 0 768 767.999994" height="1024" preserveAspectRatio="xMidYMid meet" version="1.0"><path fill="#8ecae6" d="M 313.085938 619.847656 L 282.75 608.007812 C 223.421875 578.476562 182.582031 533.84375 160.238281 474.117188 C 138.027344 414.066406 140.75 352.4375 168.410156 289.238281 C 197.941406 229.910156 242.570312 189.070312 302.300781 166.726562 C 362.347656 144.511719 423.972656 147.238281 487.171875 174.898438 C 546.503906 204.429688 587.339844 249.058594 609.6875 308.789062 C 631.898438 368.839844 629.171875 430.464844 601.515625 493.664062 C 571.980469 552.996094 527.351562 593.832031 467.625 616.179688 C 448.351562 623.296875 428.355469 627.863281 407.632812 629.875 L 376.367188 630.796875 C 355.28125 630.070312 334.1875 626.421875 313.085938 619.847656 " fill-opacity="1" fill-rule="nonzero"/><path fill="#8ecae6" d="M 165.734375 304.824219 L 164.089844 310.019531 C 160.222656 320.78125 157.167969 331.777344 154.921875 343.019531 C 154.171875 346.777344 153.519531 350.53125 152.960938 354.285156 L 152.1875 359.96875 C 151.726562 363.726562 151.351562 367.519531 151.070312 371.347656 L 151.089844 367.695312 C 151.429688 363.902344 151.863281 360.109375 152.390625 356.320312 L 153.25 350.667969 C 153.875 346.886719 154.585938 343.136719 155.386719 339.425781 C 156.199219 335.671875 157.09375 331.960938 158.078125 328.300781 L 159.632812 322.769531 C 160.703125 319.140625 161.871094 315.519531 163.128906 311.914062 L 165.734375 304.824219 M 311.230469 612.996094 L 315.125 612.078125 C 316.300781 611.503906 320.761719 611.390625 328.507812 611.730469 C 346.121094 615.601562 364.550781 617.566406 383.796875 617.625 C 397.519531 617.742188 413.945312 615.886719 433.066406 612.0625 C 430.90625 613.539062 429.5625 614.828125 429.035156 615.929688 C 442.121094 612.960938 451.339844 610.445312 456.6875 608.382812 L 499.535156 586.101562 C 542.050781 548.136719 568.6875 517.285156 579.449219 493.539062 C 596 458.789062 604.457031 425.414062 604.8125 393.417969 C 604.847656 376.875 604.035156 364.070312 602.367188 355.003906 C 599.503906 336.59375 594.652344 319.121094 587.8125 302.582031 C 586.648438 297.199219 586.886719 292.707031 588.53125 289.109375 C 585.261719 282.296875 581.664062 275.664062 577.734375 269.210938 L 561.730469 250.253906 C 547.230469 234.527344 537.015625 224.167969 531.082031 219.183594 C 517.074219 206.847656 501.777344 196.402344 485.195312 187.847656 C 478.351562 188.019531 474.257812 187.777344 472.90625 187.125 L 438.296875 175.34375 C 422.421875 171.492188 409.929688 169.320312 400.824219 168.824219 L 353.621094 171.96875 C 309.6875 177.996094 271.003906 195.578125 237.566406 224.710938 L 262.757812 212.472656 L 283.121094 204.871094 C 281.890625 209.425781 279.65625 213.355469 276.414062 216.660156 C 253.324219 232.15625 236.90625 247.320312 227.164062 262.15625 C 214.621094 277.566406 204.585938 294.46875 197.058594 312.871094 C 195.015625 317.394531 192.390625 325.171875 189.175781 336.207031 C 187.574219 348.730469 186.28125 354.53125 185.296875 353.601562 L 183.265625 368.246094 C 180.960938 391.394531 182.613281 414.242188 188.222656 436.785156 L 187.109375 437.34375 C 187.960938 441.757812 187.664062 446.128906 186.226562 450.460938 C 185.492188 453.550781 184.535156 454.628906 183.355469 453.695312 C 173.863281 436.726562 167.144531 421.503906 163.203125 408.03125 C 162.371094 413.320312 160.988281 417.515625 159.054688 420.609375 C 157.460938 409.59375 156.683594 398.503906 156.730469 387.339844 C 156.820312 368.714844 159.179688 350.371094 163.808594 332.3125 C 170.339844 309.03125 178.011719 290.210938 186.828125 275.851562 L 182.640625 276.945312 L 185.648438 268.773438 C 209.667969 231.574219 238.035156 204.378906 270.75 187.179688 C 261.902344 189.285156 250.878906 193.535156 237.679688 199.933594 C 265.714844 178.457031 297.261719 163.898438 332.320312 156.253906 C 315.921875 159.574219 300.707031 164.386719 286.675781 170.691406 C 270.199219 177.367188 251.890625 188.550781 231.757812 204.242188 L 231.171875 203.613281 C 234.207031 201.132812 237.308594 198.726562 240.476562 196.390625 C 258.171875 183.929688 273.4375 175.105469 286.277344 169.925781 C 306.300781 161.65625 323.128906 156.429688 336.757812 154.246094 L 341.628906 151.207031 C 318.253906 154.800781 295.792969 162.015625 274.25 172.851562 C 241.847656 189.15625 214.441406 211.582031 192.035156 240.128906 C 168.058594 291.8125 156.625 318.710938 157.734375 320.828125 L 150.414062 370.273438 C 149.519531 381.714844 149.476562 393.179688 150.285156 404.664062 C 153.519531 447.609375 167.460938 486.753906 192.105469 522.09375 C 205.769531 542.367188 226.5625 562.976562 254.476562 583.921875 C 255.703125 584.769531 257.417969 588.113281 259.625 593.949219 L 250.535156 590.1875 L 253.621094 593.316406 C 268.425781 607.390625 285.433594 619.460938 304.644531 629.515625 C 297.957031 634.726562 286.246094 632.734375 269.515625 623.535156 C 244.523438 610.898438 224.859375 597.96875 210.523438 584.738281 C 149.558594 530.800781 120.101562 460.960938 122.152344 375.226562 C 123.859375 368.988281 126.457031 364.910156 129.9375 362.996094 C 128.175781 384.214844 128.246094 396.308594 130.144531 399.28125 C 129.738281 381.011719 130.355469 366.660156 131.992188 356.234375 C 133.171875 374.808594 134.253906 384.445312 135.238281 385.152344 L 148.714844 312.097656 C 148.621094 310.449219 150.496094 304.871094 154.34375 295.359375 C 158.9375 284.109375 164.347656 273.242188 170.570312 262.761719 L 205.804688 210.632812 C 222.242188 194.976562 236.730469 183.503906 249.269531 176.222656 C 287.363281 160.492188 312.980469 151.382812 326.121094 148.894531 C 339.933594 145.25 357.976562 143.109375 380.246094 142.484375 C 387.640625 142.734375 393.734375 144.453125 398.519531 147.632812 C 416.332031 149.230469 430.058594 151.378906 439.695312 154.078125 C 474.902344 162.851562 506.605469 178.714844 534.804688 201.671875 C 592.480469 249.019531 622.027344 313.539062 623.445312 395.234375 C 623.226562 429.863281 613.488281 466.015625 594.21875 503.695312 C 582.878906 525.558594 558.160156 551.769531 520.066406 582.335938 C 508.632812 590.152344 500.40625 595.261719 495.382812 597.664062 L 448.644531 614.214844 C 437.46875 617.515625 426.105469 619.972656 414.554688 621.589844 C 379.359375 626.390625 344.917969 623.523438 311.230469 612.996094 " fill-opacity="1" fill-rule="nonzero"/><path fill="#8ecae6" d="M 417.878906 151.476562 L 412.433594 151.46875 L 406.707031 151.308594 L 401.023438 151.289062 L 395.3125 151.40625 L 389.601562 151.664062 L 383.890625 152.0625 L 378.207031 152.597656 L 372.519531 153.277344 L 366.871094 154.089844 L 361.21875 155.046875 L 355.621094 156.132812 L 350.019531 157.363281 L 352.21875 156.582031 L 357.824219 155.40625 L 363.453125 154.371094 L 369.105469 153.472656 L 374.785156 152.710938 L 380.464844 152.089844 L 386.179688 151.609375 L 391.878906 151.269531 L 397.617188 151.066406 L 403.3125 151.003906 L 409.015625 151.082031 L 414.75 151.300781 L 417.878906 151.476562 M 165.292969 384.949219 L 167.320312 388.382812 C 168.207031 389.332031 169.652344 393.542969 171.652344 401.023438 C 173.253906 418.945312 176.882812 437.105469 182.535156 455.507812 C 186.222656 468.296875 193.136719 483.785156 203.28125 501.976562 L 198.128906 498.832031 C 200.066406 503.214844 204.964844 511.042969 212.824219 522.3125 L 238.425781 548.855469 C 245.222656 555.644531 249.382812 559.328125 250.898438 559.902344 C 295.269531 586.320312 331.09375 601.839844 358.363281 606.457031 C 394.628906 612.867188 430.804688 610.984375 466.878906 600.804688 C 475.800781 598.464844 487.753906 593.785156 502.734375 586.757812 C 519.421875 578.398438 534.589844 568.507812 548.230469 557.085938 C 553 554.503906 557.351562 553.371094 561.285156 553.6875 C 566.792969 548.515625 572.039062 543.089844 577.015625 537.40625 L 590.34375 516.476562 L 606.003906 488.019531 L 613.019531 472.847656 C 620.519531 453.804688 625.226562 437.804688 627.148438 424.847656 L 624.472656 412.621094 C 625.609375 392.683594 625.796875 378.796875 625.039062 370.96875 C 624.347656 360.054688 622.871094 349.277344 620.605469 338.632812 C 610.234375 309.234375 603.90625 292.847656 601.617188 289.480469 C 582.160156 249.621094 553.429688 218.265625 515.429688 195.410156 C 528.917969 207.457031 540.164062 220.34375 549.171875 234.074219 C 544.484375 234.136719 540.101562 233.066406 536.023438 230.863281 C 523.238281 220.738281 511.449219 212.738281 500.65625 206.875 L 473.003906 195.621094 C 454.335938 188.730469 435.070312 184.679688 415.210938 183.460938 C 401.398438 182.746094 388.917969 183.152344 377.765625 184.671875 C 371.226562 185.496094 364.738281 186.636719 358.3125 188.097656 C 341.175781 191.40625 320.554688 199.636719 296.449219 212.792969 C 287.304688 215.3125 281.285156 215.894531 278.382812 214.542969 C 291.742188 200.558594 304.183594 189.582031 315.703125 181.609375 L 316.023438 180.40625 L 305.332031 180.535156 C 304.847656 179.804688 306.9375 178.539062 311.605469 176.738281 C 342.710938 163.1875 375.195312 156.824219 409.0625 157.644531 C 424.078125 158.105469 438.644531 159.886719 452.757812 162.992188 C 451.597656 161.71875 450.554688 160.363281 449.625 158.929688 C 452.789062 159.375 456.050781 159.699219 459.414062 159.90625 C 464.984375 161.089844 474 163.945312 486.460938 168.476562 C 515.046875 179.558594 540.476562 195.636719 562.75 216.710938 C 558.492188 209.382812 551.273438 200.308594 541.09375 189.488281 C 568.460938 208.054688 592.085938 234.039062 611.964844 267.441406 C 605.5625 255.234375 595.320312 240.960938 581.246094 224.621094 C 576.007812 218.804688 570.503906 213.253906 564.722656 207.972656 C 557.289062 200.953125 546.832031 192.789062 533.355469 183.480469 L 537.566406 185.496094 C 569.589844 206.996094 596.648438 236.890625 618.742188 275.1875 C 610.828125 256.707031 598.289062 238.171875 581.125 219.582031 C 551.65625 189.382812 520.636719 168.609375 488.066406 157.265625 C 433.578125 149.828125 402.589844 146.996094 395.097656 148.761719 L 351.507812 156.269531 C 340.304688 158.792969 329.335938 162.125 318.609375 166.261719 C 278.511719 181.953125 245.117188 206.6875 218.417969 240.464844 C 199.332031 265.726562 185.648438 292.015625 177.359375 319.339844 C 174.429688 324.605469 171.328125 327.605469 168.058594 328.347656 L 168.402344 320.324219 C 157.292969 343.28125 150.34375 364.757812 147.554688 384.753906 C 140.429688 378.140625 138.859375 365.664062 142.839844 347.320312 C 147.453125 319.730469 153.910156 297.121094 162.210938 279.496094 C 195.0625 205.441406 252.808594 156.023438 335.457031 131.246094 C 341.441406 130.632812 346.742188 131.621094 351.367188 134.210938 L 323.179688 142.292969 L 318.308594 144.855469 L 319.113281 145.015625 C 330.886719 140.902344 342.886719 137.671875 355.113281 135.324219 L 356.128906 135.535156 C 350.894531 137.246094 342.59375 140.769531 331.234375 146.109375 L 333.667969 146.304688 L 407.4375 137.21875 C 409.136719 136.867188 415.089844 137.101562 425.292969 137.925781 C 437.378906 139.015625 449.339844 140.988281 461.179688 143.84375 L 521.320312 162.007812 C 541.171875 173.070312 556.417969 183.484375 567.050781 193.257812 L 599.167969 233.1875 C 603.070312 237.871094 608.753906 246.226562 616.222656 258.265625 C 626.75 275.941406 634.714844 294.230469 640.121094 313.132812 C 641.023438 315.15625 640.875 319.777344 639.671875 327 C 643.183594 342.265625 645.351562 357.886719 646.175781 373.867188 C 647.734375 410.125 641.578125 445.03125 627.699219 478.585938 C 598.988281 547.34375 545.863281 594.421875 468.316406 619.816406 C 429.191406 630.539062 389.84375 631.589844 350.273438 622.960938 C 346.382812 622.101562 342.527344 621.144531 338.707031 620.101562 L 313.625 609.257812 C 286.34375 595.980469 266.519531 584.109375 254.152344 573.640625 C 247.960938 568.753906 242.082031 563.628906 236.507812 558.261719 C 234.273438 555.933594 232.820312 553.339844 232.152344 550.484375 C 223.136719 540.558594 216.910156 533.203125 213.476562 528.421875 C 204.085938 516.011719 195.988281 502.808594 189.183594 488.8125 C 173.785156 457.828125 165.820312 423.207031 165.292969 384.949219 " fill-opacity="1" fill-rule="nonzero"/></svg>